<?xml version="1.0" standalone="no"?>
<!DOCTYPE svg PUBLIC "-//W3C//DTD SVG 20010904//EN"
 "http://www.w3.org/TR/2001/REC-SVG-20010904/DTD/svg10.dtd">
<svg version="1.0" xmlns="http://www.w3.org/2000/svg"
 width="2436.000000pt" height="1125.000000pt" viewBox="0 0 2436.000000 1125.000000"
 preserveAspectRatio="xMidYMid meet">

<g transform="translate(0.000000,1125.000000) scale(0.100000,-0.100000)"
fill="#000000" stroke="none">
<path d="M75 11240 c-11 -4 -31 -20 -45 -35 l-25 -27 0 -5554 0 -5554 33 -32
32 -33 12110 0 12110 0 32 33 33 32 0 5555 0 5555 -33 32 -32 33 -12098 2
c-6653 1 -12106 -2 -12117 -7z m12293 -652 l2 -188 -35 0 c-28 0 -35 4 -35 20
l0 20 -20 -20 c-22 -22 -88 -27 -121 -10 -49 27 -69 143 -35 209 23 44 75 66
122 51 19 -6 38 -19 44 -28 7 -12 9 5 10 61 l0 78 33 -3 32 -3 3 -187z m-668
154 c117 -58 118 -265 0 -324 -26 -13 -59 -18 -127 -18 l-93 0 0 180 0 180 93
0 c66 -1 102 -6 127 -18z m-8615 -47 c30 -29 31 -45 5 -78 l-20 -25 22 -14
c29 -19 29 -72 -1 -101 -34 -34 -105 -31 -137 6 -13 15 -24 32 -24 38 0 17 35
9 48 -11 15 -24 64 -27 86 -4 19 18 19 20 6 45 -8 13 -21 19 -45 19 -28 0 -35
4 -35 20 0 16 7 20 30 20 32 0 54 27 44 54 -10 27 -62 24 -83 -5 -7 -10 -20
-19 -27 -19 -23 0 -16 37 12 59 37 29 89 27 119 -4z m215 3 c49 -53 49 -171
-1 -220 -49 -50 -110 -30 -138 45 -24 62 -4 162 36 186 31 18 80 13 103 -11z
m8699 -29 c48 -17 61 -52 61 -169 l0 -100 -30 0 c-20 0 -30 5 -30 15 0 8 -4
15 -9 15 -5 0 -14 -7 -21 -15 -8 -9 -30 -15 -57 -15 -71 0 -112 55 -83 110 15
28 47 42 109 49 61 7 72 20 41 51 -16 16 -29 20 -48 15 -15 -4 -28 -11 -30
-16 -2 -5 -19 -9 -38 -9 -32 0 -33 1 -22 24 21 47 93 67 157 45z m9097 -940
c10 -17 -13 -36 -27 -22 -12 12 -4 33 11 33 5 0 12 -5 16 -11z m-96 -119 c0
-100 -2 -120 -15 -120 -12 0 -15 20 -15 120 0 100 3 120 15 120 13 0 15 -20
15 -120z m1020 0 c0 -113 -1 -120 -20 -120 -12 0 -20 7 -20 17 0 15 -1 15 -18
0 -25 -23 -58 -21 -82 3 -26 26 -28 105 -3 132 18 20 73 24 91 6 9 -9 12 -2
12 35 0 40 3 47 20 47 19 0 20 -7 20 -120z m-1341 85 c48 -43 45 -149 -4 -181
-13 -9 -51 -18 -85 -21 l-60 -6 0 118 0 117 64 -4 c45 -3 71 -10 85 -23z m214
-54 c8 -9 17 -28 19 -43 l5 -28 -63 0 c-66 0 -73 -4 -51 -34 13 -18 34 -21 82
-11 l30 6 -24 -20 c-71 -63 -161 23 -120 113 20 43 91 53 122 17z m576 -17
c21 -48 16 -54 -49 -54 -46 0 -60 -3 -60 -14 0 -25 39 -46 67 -35 47 18 63 1
18 -19 -38 -18 -61 -15 -91 11 -48 42 -29 140 30 149 34 6 72 -11 85 -38z
m324 17 c8 -9 17 -28 19 -43 l5 -28 -63 0 c-66 0 -73 -4 -51 -34 13 -18 34
-21 82 -11 l30 6 -24 -20 c-71 -63 -161 23 -120 113 20 43 91 53 122 17z
m-693 -66 c0 -78 -2 -85 -20 -85 -18 0 -20 7 -20 85 0 78 2 85 20 85 18 0 20
-7 20 -85z m95 20 c9 -36 21 -65 25 -65 4 0 15 29 25 65 13 48 22 65 35 65 15
0 14 -9 -13 -85 -22 -63 -34 -85 -47 -85 -19 0 -21 3 -55 103 -22 62 -23 67
-6 67 14 0 22 -16 36 -65z m375 53 c0 -9 3 -9 12 0 13 13 48 16 48 4 0 -4 -13
-13 -30 -19 -29 -11 -30 -13 -30 -77 0 -59 -2 -66 -20 -66 -18 0 -20 7 -20 85
0 78 2 85 20 85 11 0 20 -5 20 -12z m-9680 -968 c0 -100 -2 -120 -15 -120 -8
0 -15 7 -15 16 0 14 -2 14 -22 0 -32 -22 -55 -20 -83 9 -36 35 -31 111 9 137
16 11 64 10 71 -2 14 -23 25 -7 25 35 0 33 4 45 15 45 13 0 15 -20 15 -120z
m-1117 60 c16 -28 33 -48 38 -44 5 3 18 23 30 45 18 36 43 58 54 48 2 -2 -14
-33 -36 -69 -31 -51 -39 -75 -39 -112 0 -36 -4 -48 -15 -48 -11 0 -15 12 -15
49 0 39 -8 62 -35 108 -38 63 -41 73 -22 73 6 0 25 -23 40 -50z m1767 30 c40
-40 40 -143 -1 -186 -28 -30 -78 -32 -104 -4 -22 24 -13 39 10 16 17 -17 52
-21 72 -8 13 8 33 55 33 79 0 14 -3 14 -20 -2 -46 -41 -120 -8 -120 53 0 61
86 96 130 52z m309 -1 c39 -42 36 -145 -5 -190 -21 -23 -67 -25 -89 -2 -47 47
-46 164 2 201 26 19 70 14 92 -9z m221 12 c0 -6 -24 -11 -52 -13 l-53 -3 -3
-37 c-3 -36 9 -50 23 -28 21 34 95 -15 95 -63 0 -71 -87 -105 -130 -50 -14 18
-17 29 -10 31 6 2 18 -5 26 -17 17 -23 63 -28 82 -9 17 17 15 64 -4 82 -20 20
-58 21 -74 1 -28 -34 -37 -5 -24 78 l7 37 58 0 c33 0 59 -4 59 -9z m255 -16
c30 -29 31 -54 5 -88 -16 -20 -31 -27 -68 -29 l-47 -3 -3 -42 c-2 -24 -7 -43
-13 -43 -5 0 -9 50 -9 115 l0 115 55 0 c46 0 60 -4 80 -25z m144 -68 c20 -48
40 -88 45 -88 5 0 26 39 46 87 51 124 60 121 58 -23 l-2 -118 -6 95 -5 95 -23
-47 c-12 -27 -31 -68 -41 -93 -11 -25 -24 -45 -28 -45 -4 0 -23 39 -42 86 -19
47 -38 87 -43 90 -4 3 -8 -36 -8 -85 0 -54 -4 -91 -10 -91 -6 0 -10 45 -10
116 0 101 2 115 16 112 10 -2 31 -39 53 -91z m-2139 58 c0 -18 5 -25 20 -25
11 0 20 -4 20 -10 0 -5 -9 -10 -20 -10 -18 0 -20 -7 -20 -59 0 -51 3 -61 20
-66 24 -8 27 -25 4 -25 -42 0 -54 19 -54 85 0 51 -3 65 -15 65 -8 0 -15 5 -15
10 0 6 7 10 15 10 9 0 15 9 15 25 0 16 6 25 15 25 9 0 15 -9 15 -25z m1328
-16 c-2 -6 -8 -10 -13 -10 -5 0 -11 4 -13 10 -2 6 4 11 13 11 9 0 15 -5 13
-11z m-1618 -29 c11 -11 20 -31 20 -45 0 -24 -3 -25 -60 -25 -67 0 -80 -17
-35 -46 21 -14 30 -15 52 -5 32 15 45 4 19 -15 -51 -37 -126 4 -126 69 0 74
81 116 130 67z m180 5 c16 -19 5 -34 -12 -17 -15 15 -65 16 -73 2 -11 -17 13
-37 50 -44 68 -13 67 -79 0 -92 -26 -4 -43 -1 -63 12 -23 15 -24 19 -9 22 10
2 24 -2 32 -8 9 -7 26 -9 41 -6 39 10 26 38 -26 56 -48 17 -64 47 -40 76 16
19 84 18 100 -1z m313 -2 c8 -10 19 -30 22 -45 l7 -28 -61 0 c-55 0 -61 -2
-61 -20 0 -28 40 -46 68 -31 34 18 49 12 23 -9 -30 -26 -62 -25 -95 1 -21 16
-26 29 -26 63 0 59 22 86 69 86 23 0 44 -7 54 -17z m107 5 c0 -9 3 -9 12 0 15
15 48 16 48 2 0 -5 -8 -10 -18 -10 -31 0 -42 -22 -42 -87 0 -49 -3 -63 -15
-63 -12 0 -15 16 -15 85 0 69 3 85 15 85 8 0 15 -5 15 -12z m424 -10 c22 -31
22 -148 1 -148 -8 0 -15 7 -15 17 0 15 -1 15 -18 0 -10 -10 -27 -17 -37 -17
-24 0 -55 28 -55 50 0 25 23 41 70 47 35 5 41 9 38 27 -2 16 -11 22 -35 24
-19 2 -33 -1 -33 -7 0 -6 -7 -11 -15 -11 -8 0 -15 4 -15 8 0 37 90 45 114 10z
m102 -43 c10 -36 23 -64 28 -62 5 2 17 31 28 65 12 39 24 62 33 62 11 0 7 -22
-20 -97 -34 -94 -61 -133 -91 -133 -21 0 -17 18 5 25 31 10 31 30 0 115 -34
93 -33 90 -15 90 8 0 21 -26 32 -65z m494 -50 c0 -8 -7 -15 -15 -15 -8 0 -15
7 -15 15 0 8 7 15 15 15 8 0 15 -7 15 -15z m8760 -2175 l0 -1830 -10030 0
-10030 0 0 1830 0 1830 10030 0 10030 0 0 -1830z m-9820 -2510 c0 -100 -2
-120 -15 -120 -8 0 -15 7 -15 17 0 15 -1 15 -18 0 -47 -42 -102 -4 -102 70 0
71 44 103 101 73 17 -10 19 -7 19 35 0 33 4 45 15 45 13 0 15 -20 15 -120z
m-370 101 c0 -6 -15 -11 -32 -13 l-33 -3 -3 -102 c-2 -83 -6 -103 -17 -103
-12 0 -15 19 -15 105 l0 105 -35 0 c-19 0 -35 5 -35 10 0 6 35 10 85 10 47 0
85 -4 85 -9z m970 -106 c0 -70 -4 -115 -10 -115 -6 0 -10 40 -10 100 0 55 -2
100 -5 100 -3 0 -17 -7 -30 -16 -34 -22 -32 -5 3 23 48 40 52 34 52 -92z m303
101 c23 -18 22 -62 -3 -79 -20 -14 -20 -14 5 -31 15 -10 25 -26 25 -41 0 -28
-43 -65 -77 -65 -29 0 -73 27 -73 46 0 20 13 17 28 -7 10 -15 21 -19 50 -17
30 2 38 8 47 31 8 24 6 31 -10 43 -10 8 -29 14 -42 14 -13 0 -23 5 -23 10 0 6
11 10 24 10 30 0 49 22 44 52 -2 18 -10 24 -38 26 -23 3 -38 -2 -46 -13 -7
-10 -18 -15 -25 -13 -8 3 -4 12 11 26 27 25 75 29 103 8z m227 4 c0 -5 -24
-10 -54 -10 l-53 0 -6 -37 c-8 -44 -5 -48 21 -34 12 6 28 11 37 11 25 0 65
-46 65 -75 0 -35 -42 -75 -78 -75 -27 0 -72 31 -72 50 0 17 14 11 28 -10 18
-30 67 -27 89 6 15 24 15 29 2 53 -18 32 -52 38 -85 16 -14 -9 -27 -15 -28
-13 -1 2 0 31 2 66 l4 62 64 0 c36 0 64 -4 64 -10z m247 -12 c28 -26 31 -78 5
-101 -9 -8 -37 -17 -62 -19 l-45 -3 -3 -42 c-2 -24 -7 -43 -13 -43 -5 0 -9 50
-9 115 l0 115 52 0 c39 0 57 -5 75 -22z m147 -73 c21 -52 41 -95 45 -95 4 0
25 43 45 95 52 132 66 128 66 -20 0 -138 -18 -156 -22 -22 l-3 92 -39 -93
c-22 -51 -43 -91 -49 -89 -5 1 -23 36 -39 77 -16 41 -34 79 -39 85 -5 5 -9
-24 -9 -78 0 -51 -4 -87 -10 -87 -6 0 -10 45 -10 115 0 146 13 150 64 20z
m-814 39 c0 -17 -22 -14 -28 4 -2 7 3 12 12 12 9 0 16 -7 16 -16z m-931 -30
c25 -31 27 -64 6 -103 -15 -31 -33 -41 -70 -41 -62 0 -97 90 -55 143 30 38 90
38 119 1z m395 4 c22 -31 22 -148 1 -148 -8 0 -15 7 -15 17 0 15 -1 15 -18 0
-10 -10 -27 -17 -37 -17 -24 0 -55 28 -55 50 0 25 23 41 70 47 35 5 41 9 38
27 -2 16 -11 22 -35 24 -19 2 -33 -1 -33 -7 0 -6 -7 -11 -15 -11 -8 0 -15 4
-15 8 0 37 90 45 114 10z m108 -45 c10 -35 23 -63 27 -63 5 0 17 29 27 65 10
36 24 65 31 65 18 0 17 -8 -12 -86 -44 -119 -48 -125 -73 -135 -35 -13 -41 -1
-12 21 l25 19 -32 91 c-26 74 -29 91 -16 88 9 -2 23 -27 35 -65z m428 -48 c0
-8 -4 -15 -9 -15 -13 0 -22 16 -14 24 11 11 23 6 23 -9z m-8460 -935 c0 -183
-1 -190 -20 -190 -14 0 -20 7 -20 21 l0 20 -26 -20 c-42 -33 -103 -29 -140 10
-27 28 -29 36 -29 105 0 73 1 77 33 105 40 36 96 39 136 8 l26 -20 0 75 c0 69
2 76 20 76 19 0 20 -7 20 -190z m618 168 c3 -13 -3 -18 -22 -18 -26 0 -46 -24
-46 -54 0 -11 9 -16 30 -16 23 0 30 -4 30 -20 0 -16 -7 -20 -30 -20 l-30 0 0
-115 c0 -108 -1 -115 -20 -115 -19 0 -20 7 -20 115 l0 115 -25 0 c-18 0 -25 5
-25 20 0 15 7 20 25 20 22 0 25 4 25 34 0 26 7 40 27 56 32 25 76 23 81 -2z
m400 -51 c3 -67 3 -67 25 -52 34 24 94 19 122 -10 24 -23 25 -31 25 -135 0
-103 -1 -110 -20 -110 -19 0 -20 7 -20 93 0 109 -13 137 -62 137 -57 0 -68
-21 -68 -132 0 -98 0 -98 -25 -98 l-25 0 0 183 c0 101 3 187 7 191 4 4 14 5
23 4 11 -3 16 -19 18 -71z m872 -117 c0 -183 -1 -190 -20 -190 -14 0 -20 7
-20 21 l0 20 -26 -20 c-42 -33 -103 -29 -140 10 -27 28 -29 36 -29 105 0 73 1
77 33 105 40 36 96 39 136 8 l26 -20 0 75 c0 69 2 76 20 76 19 0 20 -7 20
-190z m778 162 c4 -28 -24 -40 -45 -19 -14 13 -14 19 -3 32 18 22 44 15 48
-13z m1183 7 c46 -16 68 -37 90 -84 35 -76 17 -199 -37 -247 -11 -9 -40 -22
-66 -29 -94 -25 -177 27 -199 126 -35 157 76 279 212 234z m-4952 -36 c6 -21
21 -84 35 -141 13 -57 26 -105 28 -107 2 -2 21 61 42 141 36 132 41 144 62
144 25 0 27 -3 69 -165 15 -55 30 -103 34 -108 4 -4 22 56 41 133 32 132 35
140 58 140 18 0 23 -4 19 -17 -2 -10 -24 -91 -48 -180 -40 -148 -46 -163 -66
-163 -23 0 -26 7 -89 225 l-18 60 -10 -35 c-71 -245 -71 -245 -93 -248 -24 -4
-23 -6 -78 198 -20 74 -38 141 -40 148 -3 7 5 12 20 12 20 0 26 -7 34 -37z
m4541 -114 l0 -151 -34 -34 c-36 -36 -62 -41 -115 -23 -29 10 -61 52 -61 79 0
20 34 10 55 -16 13 -17 31 -26 48 -26 53 0 57 11 57 173 l0 149 25 0 25 0 0
-151z m936 118 c30 -35 31 -77 2 -108 l-23 -24 33 -31 c42 -41 43 -81 3 -126
-29 -33 -30 -33 -135 -36 l-106 -4 0 174 c0 96 3 178 8 182 4 4 49 6 100 4 88
-3 95 -5 118 -31z m-3526 -22 c0 -32 2 -35 30 -35 23 0 30 -4 30 -20 0 -16 -7
-20 -30 -20 l-30 0 0 -83 c0 -86 8 -107 42 -107 11 0 18 -7 18 -20 0 -16 -7
-20 -32 -20 -57 0 -68 21 -68 131 0 93 -1 98 -22 101 -34 5 -37 38 -4 38 23 0
26 4 26 35 0 28 4 35 20 35 16 0 20 -7 20 -35z m-1351 -60 c53 -45 59 -159 10
-211 -45 -48 -129 -48 -177 0 -19 19 -26 38 -30 80 -8 101 34 156 119 156 36
0 55 -6 78 -25z m141 3 l0 -21 23 21 c30 29 77 30 77 2 0 -15 -7 -20 -28 -20
-51 0 -67 -30 -70 -136 -4 -85 -6 -94 -23 -94 -18 0 -19 9 -19 135 0 128 1
135 20 135 14 0 20 -7 20 -22z m749 -3 c53 -45 59 -159 10 -211 -45 -48 -129
-48 -177 0 -19 19 -26 38 -30 80 -8 101 34 156 119 156 36 0 55 -6 78 -25z
m1042 -3 c29 -26 56 -102 41 -117 -3 -3 -48 -5 -99 -5 -93 0 -94 0 -87 -22 12
-40 35 -58 75 -58 21 0 44 7 53 15 15 16 56 21 56 7 0 -17 -49 -54 -82 -61
-80 -18 -139 27 -146 114 -8 98 34 155 114 155 34 0 51 -6 75 -28z m704 3 c24
-23 25 -31 25 -135 0 -103 -1 -110 -20 -110 -14 0 -20 7 -20 22 l0 21 -24 -22
c-62 -59 -170 -4 -150 75 9 36 41 53 112 60 65 7 73 15 52 55 -13 24 -81 27
-100 4 -16 -19 -50 -20 -50 -1 0 29 50 56 102 56 39 0 54 -5 73 -25z m145 -82
c19 -57 37 -103 40 -103 4 0 21 47 40 105 30 93 37 105 57 105 13 0 23 -1 23
-3 0 -17 -123 -323 -136 -338 -21 -23 -84 -27 -84 -4 0 8 8 15 17 15 24 0 53
30 53 54 0 12 -20 75 -45 141 -25 66 -45 124 -45 128 0 5 10 7 23 5 18 -2 28
-20 57 -105z m388 -30 l3 -133 -26 0 -25 0 0 136 c0 135 0 135 23 132 21 -3
22 -7 25 -135z m226 116 c14 -11 26 -27 26 -35 0 -19 -29 -18 -51 2 -23 21
-66 21 -86 1 -26 -25 -8 -45 59 -65 71 -20 96 -49 84 -95 -9 -37 -46 -59 -101
-59 -49 -1 -97 25 -103 56 -5 23 23 20 57 -5 48 -36 122 -5 95 39 -6 8 -32 22
-60 29 -60 18 -86 42 -86 79 0 65 107 100 166 53z m156 -23 c0 -23 -30 -41
-48 -30 -23 15 -25 29 -7 48 12 12 21 13 36 6 10 -6 19 -17 19 -24z m-6 -181
c8 -22 -4 -45 -24 -45 -10 0 -23 7 -30 15 -15 18 2 45 30 45 10 0 20 -7 24
-15z m-4116 -1262 l3 -82 82 -3 c74 -3 82 -5 82 -23 0 -18 -8 -20 -82 -23
l-83 -3 0 -79 c0 -80 -9 -101 -35 -80 -11 9 -15 34 -15 86 l0 74 -74 0 c-52 0
-77 4 -86 15 -21 26 0 35 81 35 l79 0 0 78 c0 82 4 95 30 90 12 -3 16 -21 18
-85z m12523 -1162 c24 -30 24 -62 0 -92 l-19 -24 -3080 -3 c-2004 -1 -3089 1
-3106 8 -55 21 -59 100 -6 127 20 10 646 12 3108 10 l3084 -2 19 -24z"/>
<path d="M12186 10598 c-23 -33 -21 -103 4 -128 46 -46 110 -10 110 63 0 58
-22 87 -65 87 -24 0 -39 -7 -49 -22z"/>
<path d="M11550 10574 l0 -127 52 7 c65 9 84 19 103 56 30 58 11 155 -34 180
-11 5 -42 10 -70 10 l-51 0 0 -126z"/>
<path d="M3224 10682 c-34 -22 -45 -114 -21 -162 9 -18 21 -25 42 -25 26 0 32
5 43 40 28 83 -15 180 -64 147z"/>
<path d="M11908 10509 c-44 -25 -3 -78 47 -59 20 8 45 43 45 66 0 8 -75 3 -92
-7z"/>
<path d="M21906 9624 c-19 -18 -21 -75 -4 -92 7 -7 21 -12 33 -12 30 0 45 19
45 56 0 34 -21 64 -45 64 -7 0 -21 -7 -29 -16z"/>
<path d="M20560 9605 l0 -85 35 0 c50 0 85 36 85 88 0 51 -32 82 -83 82 l-37
0 0 -85z"/>
<path d="M20806 9624 c-11 -29 -6 -34 34 -34 26 0 40 5 40 13 0 34 -62 52 -74
21z"/>
<path d="M21372 9628 c-23 -23 -13 -38 26 -38 46 0 55 6 41 31 -11 21 -49 25
-67 7z"/>
<path d="M21706 9624 c-11 -29 -6 -34 34 -34 26 0 40 5 40 13 0 34 -62 52 -74
21z"/>
<path d="M11776 8694 c-24 -24 -20 -80 6 -98 29 -20 34 -20 58 4 25 25 26 72
2 93 -23 21 -46 22 -66 1z"/>
<path d="M12454 8755 c-29 -29 -30 -49 -4 -75 24 -24 38 -25 68 -4 24 17 30
65 10 81 -30 23 -49 23 -74 -2z"/>
<path d="M12771 8761 c-46 -46 -33 -172 17 -179 50 -7 79 57 62 134 -8 35 -32
64 -52 64 -4 0 -17 -9 -27 -19z"/>
<path d="M13217 8763 c-4 -3 -7 -26 -7 -50 0 -52 14 -61 70 -44 71 21 57 101
-19 101 -21 0 -41 -3 -44 -7z"/>
<path d="M10952 8698 c-25 -25 -13 -38 33 -38 30 0 45 4 45 13 0 19 -21 37
-45 37 -12 0 -26 -5 -33 -12z"/>
<path d="M11452 8698 c-25 -25 -13 -38 33 -38 49 0 50 1 35 31 -12 21 -50 25
-68 7z"/>
<path d="M11977 8633 c-14 -13 -6 -42 13 -48 26 -8 60 11 60 35 0 16 -7 20
-33 20 -19 0 -37 -3 -40 -7z"/>
<path d="M11493 3948 c-19 -24 -22 -48 -12 -77 21 -60 89 -39 89 28 0 20 -5
42 -12 49 -16 16 -53 15 -65 0z"/>
<path d="M12872 3968 l3 -53 37 1 c45 1 68 18 68 50 0 34 -26 54 -71 54 l-40
0 3 -52z"/>
<path d="M11280 3941 c-18 -34 -12 -78 12 -95 29 -20 34 -20 58 4 23 23 26 67
6 93 -18 23 -63 22 -76 -2z"/>
<path d="M11687 3883 c-14 -13 -6 -42 13 -48 26 -8 60 11 60 35 0 16 -7 20
-33 20 -19 0 -37 -3 -40 -7z"/>
<path d="M3669 2938 c-15 -24 -19 -44 -16 -76 6 -60 30 -84 81 -80 36 3 43 7
60 41 35 72 -1 147 -69 147 -29 0 -39 -6 -56 -32z"/>
<path d="M5559 2938 c-15 -24 -19 -44 -16 -76 6 -60 30 -84 81 -80 36 3 43 7
60 41 35 72 -1 147 -69 147 -29 0 -39 -6 -56 -32z"/>
<path d="M7611 3056 c-47 -15 -73 -55 -79 -118 -8 -99 38 -161 119 -161 33 0
47 7 72 32 31 30 32 35 32 111 0 72 -2 82 -25 105 -34 34 -77 45 -119 31z"/>
<path d="M8050 3005 l0 -55 56 0 c71 0 94 12 94 50 0 40 -32 60 -97 60 l-53 0
0 -55z"/>
<path d="M8050 2840 l0 -60 65 0 c72 0 105 20 105 63 0 41 -29 57 -103 57
l-67 0 0 -60z"/>
<path d="M3209 2938 c-15 -24 -19 -44 -16 -76 6 -56 30 -82 77 -82 53 0 75 28
75 95 0 68 -22 95 -77 95 -32 0 -41 -5 -59 -32z"/>
<path d="M4099 2938 c-15 -24 -19 -44 -16 -76 6 -56 30 -82 77 -82 53 0 75 28
75 95 0 68 -22 95 -77 95 -32 0 -41 -5 -59 -32z"/>
<path d="M5158 2953 c-8 -10 -18 -26 -21 -35 -6 -16 1 -18 68 -18 41 0 75 3
75 6 0 11 -23 49 -34 56 -20 14 -73 8 -88 -9z"/>
<path d="M5858 2849 c-26 -14 -22 -46 7 -65 21 -14 30 -14 55 -4 32 13 50 37
50 64 0 12 -11 16 -47 16 -27 0 -56 -5 -65 -11z"/>
</g>
</svg>
